<?xml version="1.0" encoding="UTF-8"?>
<svg width="512" height="512" viewBox="0 0 512 512" fill="none" xmlns="http://www.w3.org/2000/svg">
  <rect width="512" height="512" rx="64" fill="#242933"/>
  <path d="M353.333 245.333H274.667V270.667H353.333C361.333 270.667 368 264 368 256C368 248 361.333 245.333 353.333 245.333Z" fill="#27C478"/>
  <path d="M353.333 192H274.667V217.333H353.333C361.333 217.333 368 210.667 368 202.667C368 194.667 361.333 192 353.333 192Z" fill="#27C478"/>
  <path d="M353.333 298.667H274.667V324H353.333C361.333 324 368 317.333 368 309.333C368 301.333 361.333 298.667 353.333 298.667Z" fill="#27C478"/>
  <path d="M236 192H182.667V324H236V192Z" fill="#27C478"/>
  <path d="M246.667 144C198.4 144 158.934 174.933 144 217.333H176C188.8 186.667 216 166.667 246.667 166.667C285.6 166.667 317.067 198.133 317.067 237.067C317.067 276 285.6 307.733 246.667 307.733C216 307.733 188.8 288 176 256.267H144C158.934 299.2 198.4 330.133 246.667 330.133C297.867 330.133 339.467 288.533 339.467 237.333C339.467 186.133 297.867 144 246.667 144Z" fill="#27C478"/>
  <path d="M112 248V248C112 252.418 115.582 256 120 256V256C124.418 256 128 252.418 128 248V248C128 243.582 124.418 240 120 240V240C115.582 240 112 243.582 112 248Z" fill="#27C478"/>
  <path d="M400 248V248C400 252.418 396.418 256 392 256V256C387.582 256 384 252.418 384 248V248C384 243.582 387.582 240 392 240V240C396.418 240 400 243.582 400 248Z" fill="#27C478"/>
  <path d="M256 368L276 336H236L256 368Z" fill="#27C478"/>
</svg>